<?xml version="1.0" standalone="yes"?>
<svg width="500" height="276">
<path style="fill:#000000; stroke:none;" d="M0 0L0 276L500 276L500 0L0 0z"/>
<path style="fill:#e76006; stroke:none;" d="M79 242L79 243C98.5634 243.404 115.211 242.821 132 230.957C164.15 208.237 167.679 160.085 142.561 131.015C124.162 109.721 88.5405 110.953 73.4792 86C58.9469 61.9235 76.3029 26.1514 104 22L104 20C87.8917 19.8667 73.8409 19.4076 59 27.3233C25.7665 45.0492 14.3311 89.9268 33.4529 122C53.4091 155.473 114.846 149.28 114.999 197C115.016 202.233 114.354 207.034 112.641 212C110.488 218.242 106.572 224.246 101.91 228.91C95.2863 235.535 87.4922 238.639 79 242z"/>
<path style="fill:#f7b63b; stroke:none;" d="M170 138C185.457 129.521 181.454 99.6444 170.907 89.0934C156.031 74.213 108.423 77.4452 117.16 45C118.045 41.7171 119.45 38.7037 121.532 36.0039C124.418 32.2626 128.143 29.6342 132 27C126.497 24.7554 119.037 27.719 114 30.2731C96.2696 39.2638 89.0098 61.7305 96.4753 80C106.493 104.515 133.794 101.61 153 113.468C161.726 118.856 169.516 127.443 170 138z"/>
<path style="fill:#e76006; stroke:none;" d="M229 83.4676C216.953 85.7449 208.655 100.491 217.394 110.907C222.699 117.229 231.135 118.536 237.996 122.414C241.339 124.303 245.162 127.716 244.458 131.995C241.68 148.86 220.453 130.64 214.42 134.736C209.491 138.082 213.245 142.835 217.005 144.672C224.048 148.112 233.328 149.122 241 147.482C252.965 144.925 261.15 131.044 253.347 120.015C249.043 113.932 241.455 111.688 235 108.691C231.382 107.01 224.627 103.968 225.176 99.0031C226.816 84.173 246.074 98.3491 251.566 94.2924C255.32 91.5202 253.478 87.0849 249.941 85.4823C243.857 82.7254 235.503 82.2381 229 83.4676M268 101L261 101L261 109L268 109C268 117.587 264.427 136.738 269.742 143.772C274.874 150.562 289.737 148.954 288 139C273.323 138.827 278 119.638 278 109C291.811 109 291.811 101 278 101C278 97.6542 279.183 91.3744 276.972 88.6042C269.897 79.739 268 97.8743 268 101M381 101L374 101L374 109L381 109C381 117.587 377.427 136.738 382.742 143.772C387.874 150.562 402.737 148.954 401 139C386.323 138.827 391 119.638 391 109C404.811 109 404.811 101 391 101C391 97.6543 392.183 91.3743 389.972 88.6042C382.897 79.739 381 97.8743 381 101M296 105C299.552 119.602 319.93 99.4527 321 119C314.129 119 306.093 117.852 300.185 122.133C292.273 127.867 293.15 142.312 302.004 146.682C309.319 150.293 316.581 146.377 323 143C324.704 145.945 329.462 149.229 331.929 144.812C333.817 141.431 331.007 133.956 331 130C330.989 123.186 332.479 114.31 329.427 108.004C323.576 95.9132 305.36 100.068 296 105M441 136C428.1 139.681 421.936 141.43 417 127L444 127C446.916 111.286 434.675 92.2986 417.004 102.279C405.576 108.732 404.143 128.231 409.684 138.999C415.688 150.665 447.772 152.071 441 136M479 120C495.719 119.849 486.791 102.258 475 100.326C451.349 96.4515 443.715 135.371 462.004 145.91C467.337 148.984 487.494 149.684 487.248 139.98C487.04 131.752 475.07 140.401 471.004 139.164C461.214 136.186 460.684 118.803 466.43 112.137C473.146 104.346 478.834 113.132 479 120M345 147L355 147C355 134.221 349.751 109.46 369 111L371 101C363.766 101 357.522 100.629 354 108C352.281 105.089 345.029 97.0417 342.708 104.149C341.553 107.682 344.609 112.373 344.907 116C345.743 126.205 345 136.76 345 147z"/>
<path style="fill:#000000; stroke:none;" d="M417 120L435 120C433.595 104.03 420.465 106.754 417 120z"/>
<path style="fill:#2873b5; stroke:none;" d="M14 125C4.52497 143.012 1.98528 167.92 23 179.204C33.888 185.051 47.8815 184.718 58 191.8C76.2623 204.582 70.815 225.313 54 236L54 237C86.2943 235.61 106.351 197.243 82.8958 172.015C69.6015 157.715 48.8784 158.719 33 149.073C23.9563 143.58 17.4333 135.592 16 125L14 125z"/>
<path style="fill:#000000; stroke:none;" d="M321 126C318.36 126 315.627 125.814 313 126.109C294.941 128.136 313.854 150.085 320.397 133.906C321.363 131.517 320.998 128.522 321 126z"/>
<path style="fill:#e76006; stroke:none;" d="M264 167C267.605 166.793 272.105 168.175 273 164L264 167M224 176L218 176L218 178L222 178C218.486 189.467 208.672 171.548 219.019 171.027C220.638 170.945 222.451 171.627 224 172C221.116 163.799 210.997 169.847 211.279 176.999C211.708 187.86 223.961 186.905 224 176M228 168L228 185L238 185L238 183L230 183L230 178L236 178L236 175L230 175L230 170L237 170L237 168L228 168M249 180L249 181L239 182C246.988 190.158 256.297 177.964 243 174C244.991 170.571 247.237 170.824 251 171C248.257 167.118 238.699 167.286 240.712 173.792C241.69 176.95 246.345 178.6 249 180M252 168L252 170L256 170L256 185L259 185L259 170L263 170L263 168L252 168M267 168L262 185C269.387 182.501 268.591 182.602 276 185C274.193 179.446 273.093 169.973 267 168M280.148 169.029C273.142 173.122 277.901 189.321 286.772 183.971C293.739 179.77 289.053 163.826 280.148 169.029M301 168L301 185L311 185L311 183L303 183L303 178L309 178L309 175L303 175L303 170L310 170L310 168L301 168M315 168L313 185C317.252 184.089 316.003 178.706 317 175L323 182L325 173L326 173L326 185L329 185L328 168L324 168L321 177L318 168L315 168M338 168L338 170L342 170L342 185L345 185L345 170L349 170L349 168L338 168M351 168L351 185L354 185L354 168L351 168z"/>
<path style="fill:#000000; stroke:none;" d="M282.21 171.176C277.354 173.323 279.341 184.27 284.737 181.824C289.361 179.728 287.59 168.797 282.21 171.176M268 173L267 178L271 178L268 173z"/>
</svg>
